<svg width="35" height="35" viewBox="0 0 35 35" fill="none" xmlns="http://www.w3.org/2000/svg">
<path d="M32.6329 0H2.31079C1.01449 0 0 1.01449 0 2.31079C0 3.60708 1.01449 4.62158 2.31079 4.62158H32.6892C33.9855 4.62158 35 3.60708 35 2.31079C34.9436 1.01449 33.9291 0 32.6329 0V0Z" fill="#F5F9FC"/>
<path d="M32.6329 30.3784H2.31079C1.01449 30.3784 0 31.3929 0 32.6892C0 33.9855 1.01449 35 2.31079 35H32.6892C33.9855 35 35 33.9855 35 32.6892C34.9436 31.3929 33.9291 30.3784 32.6329 30.3784V30.3784Z" fill="#F5F9FC"/>
<path d="M32.6329 15.161H2.31079C1.01449 15.161 0 16.1755 0 17.4718C0 18.7681 1.01449 19.7826 2.31079 19.7826H32.6892C33.9855 19.7826 35 18.7681 35 17.4718C34.9436 16.1755 33.9291 15.161 32.6329 15.161V15.161Z" fill="#F5F9FC"/>
</svg>
