<svg width="147" height="27" viewBox="0 0 147 27" fill="none" xmlns="http://www.w3.org/2000/svg">
<path d="M12.195 19.05V21.495H0V0H2.895V19.05H12.195Z" fill="#F5F9FC"/>
<path d="M20.1012 6.06C21.2112 6.06 22.2112 6.245 23.1012 6.615C23.9912 6.985 24.7512 7.51 25.3812 8.19C26.0112 8.87 26.4912 9.695 26.8212 10.665C27.1612 11.625 27.3312 12.7 27.3312 13.89C27.3312 15.09 27.1612 16.17 26.8212 17.13C26.4912 18.09 26.0112 18.91 25.3812 19.59C24.7512 20.27 23.9912 20.795 23.1012 21.165C22.2112 21.525 21.2112 21.705 20.1012 21.705C18.9812 21.705 17.9712 21.525 17.0712 21.165C16.1812 20.795 15.4212 20.27 14.7912 19.59C14.1612 18.91 13.6762 18.09 13.3362 17.13C13.0062 16.17 12.8412 15.09 12.8412 13.89C12.8412 12.7 13.0062 11.625 13.3362 10.665C13.6762 9.695 14.1612 8.87 14.7912 8.19C15.4212 7.51 16.1812 6.985 17.0712 6.615C17.9712 6.245 18.9812 6.06 20.1012 6.06ZM20.1012 19.62C21.6012 19.62 22.7212 19.12 23.4612 18.12C24.2012 17.11 24.5712 15.705 24.5712 13.905C24.5712 12.095 24.2012 10.685 23.4612 9.675C22.7212 8.665 21.6012 8.16 20.1012 8.16C19.3412 8.16 18.6762 8.29 18.1062 8.55C17.5462 8.81 17.0762 9.185 16.6962 9.675C16.3262 10.165 16.0462 10.77 15.8562 11.49C15.6762 12.2 15.5862 13.005 15.5862 13.905C15.5862 15.705 15.9562 17.11 16.6962 18.12C17.4462 19.12 18.5812 19.62 20.1012 19.62Z" fill="#F5F9FC"/>
<path d="M35.9248 14.07C36.4648 14.07 36.9398 13.995 37.3498 13.845C37.7598 13.695 38.1048 13.485 38.3848 13.215C38.6648 12.945 38.8748 12.625 39.0148 12.255C39.1548 11.875 39.2248 11.46 39.2248 11.01C39.2248 10.08 38.9398 9.34 38.3698 8.79C37.8098 8.24 36.9948 7.965 35.9248 7.965C34.8448 7.965 34.0198 8.24 33.4498 8.79C32.8898 9.34 32.6098 10.08 32.6098 11.01C32.6098 11.46 32.6798 11.875 32.8198 12.255C32.9698 12.625 33.1848 12.945 33.4648 13.215C33.7448 13.485 34.0898 13.695 34.4998 13.845C34.9098 13.995 35.3848 14.07 35.9248 14.07ZM40.7398 22.32C40.7398 21.95 40.6348 21.65 40.4248 21.42C40.2148 21.19 39.9298 21.01 39.5698 20.88C39.2198 20.75 38.8098 20.66 38.3398 20.61C37.8698 20.55 37.3698 20.505 36.8398 20.475C36.3198 20.445 35.7898 20.415 35.2498 20.385C34.7098 20.355 34.1898 20.305 33.6898 20.235C33.1298 20.495 32.6698 20.825 32.3098 21.225C31.9598 21.615 31.7848 22.075 31.7848 22.605C31.7848 22.945 31.8698 23.26 32.0398 23.55C32.2198 23.85 32.4898 24.105 32.8498 24.315C33.2098 24.535 33.6598 24.705 34.1998 24.825C34.7498 24.955 35.3948 25.02 36.1348 25.02C36.8548 25.02 37.4998 24.955 38.0698 24.825C38.6398 24.695 39.1198 24.51 39.5098 24.27C39.9098 24.03 40.2148 23.745 40.4248 23.415C40.6348 23.085 40.7398 22.72 40.7398 22.32ZM43.4548 6.9V7.89C43.4548 8.22 43.2448 8.43 42.8248 8.52L41.0998 8.745C41.4398 9.405 41.6098 10.135 41.6098 10.935C41.6098 11.675 41.4648 12.35 41.1748 12.96C40.8948 13.56 40.5048 14.075 40.0048 14.505C39.5048 14.935 38.9048 15.265 38.2048 15.495C37.5048 15.725 36.7448 15.84 35.9248 15.84C35.2148 15.84 34.5448 15.755 33.9148 15.585C33.5948 15.785 33.3498 16 33.1798 16.23C33.0098 16.45 32.9248 16.675 32.9248 16.905C32.9248 17.265 33.0698 17.54 33.3598 17.73C33.6598 17.91 34.0498 18.04 34.5298 18.12C35.0098 18.2 35.5548 18.25 36.1648 18.27C36.7848 18.29 37.4148 18.325 38.0548 18.375C38.7048 18.415 39.3348 18.49 39.9448 18.6C40.5648 18.71 41.1148 18.89 41.5948 19.14C42.0748 19.39 42.4598 19.735 42.7498 20.175C43.0498 20.615 43.1998 21.185 43.1998 21.885C43.1998 22.535 43.0348 23.165 42.7048 23.775C42.3848 24.385 41.9198 24.925 41.3098 25.395C40.6998 25.875 39.9498 26.255 39.0598 26.535C38.1798 26.825 37.1848 26.97 36.0748 26.97C34.9648 26.97 33.9948 26.86 33.1648 26.64C32.3348 26.42 31.6448 26.125 31.0948 25.755C30.5448 25.385 30.1298 24.955 29.8498 24.465C29.5798 23.985 29.4448 23.48 29.4448 22.95C29.4448 22.2 29.6798 21.565 30.1498 21.045C30.6198 20.525 31.2648 20.11 32.0848 19.8C31.6348 19.6 31.2748 19.335 31.0048 19.005C30.7448 18.665 30.6148 18.21 30.6148 17.64C30.6148 17.42 30.6548 17.195 30.7348 16.965C30.8148 16.725 30.9348 16.49 31.0948 16.26C31.2648 16.02 31.4698 15.795 31.7098 15.585C31.9498 15.375 32.2298 15.19 32.5498 15.03C31.7998 14.61 31.2148 14.055 30.7948 13.365C30.3748 12.665 30.1648 11.855 30.1648 10.935C30.1648 10.195 30.3048 9.525 30.5848 8.925C30.8748 8.315 31.2748 7.8 31.7848 7.38C32.2948 6.95 32.8998 6.62 33.5998 6.39C34.3098 6.16 35.0848 6.045 35.9248 6.045C36.5848 6.045 37.1998 6.12 37.7698 6.27C38.3398 6.41 38.8598 6.62 39.3298 6.9H43.4548Z" fill="#F5F9FC"/>
<path d="M52.3863 6.06C53.4963 6.06 54.4963 6.245 55.3863 6.615C56.2763 6.985 57.0363 7.51 57.6663 8.19C58.2963 8.87 58.7763 9.695 59.1063 10.665C59.4463 11.625 59.6163 12.7 59.6163 13.89C59.6163 15.09 59.4463 16.17 59.1063 17.13C58.7763 18.09 58.2963 18.91 57.6663 19.59C57.0363 20.27 56.2763 20.795 55.3863 21.165C54.4963 21.525 53.4963 21.705 52.3863 21.705C51.2663 21.705 50.2563 21.525 49.3563 21.165C48.4663 20.795 47.7063 20.27 47.0763 19.59C46.4463 18.91 45.9613 18.09 45.6213 17.13C45.2913 16.17 45.1263 15.09 45.1263 13.89C45.1263 12.7 45.2913 11.625 45.6213 10.665C45.9613 9.695 46.4463 8.87 47.0763 8.19C47.7063 7.51 48.4663 6.985 49.3563 6.615C50.2563 6.245 51.2663 6.06 52.3863 6.06ZM52.3863 19.62C53.8863 19.62 55.0063 19.12 55.7463 18.12C56.4863 17.11 56.8563 15.705 56.8563 13.905C56.8563 12.095 56.4863 10.685 55.7463 9.675C55.0063 8.665 53.8863 8.16 52.3863 8.16C51.6263 8.16 50.9613 8.29 50.3913 8.55C49.8313 8.81 49.3613 9.185 48.9813 9.675C48.6113 10.165 48.3313 10.77 48.1413 11.49C47.9613 12.2 47.8713 13.005 47.8713 13.905C47.8713 15.705 48.2413 17.11 48.9813 18.12C49.7313 19.12 50.8663 19.62 52.3863 19.62Z" fill="#F5F9FC"/>
<path d="M73.1986 8.505C73.5286 8.135 73.8786 7.8 74.2486 7.5C74.6186 7.2 75.0086 6.945 75.4186 6.735C75.8386 6.515 76.2786 6.35 76.7386 6.24C77.2086 6.12 77.7136 6.06 78.2536 6.06C79.0836 6.06 79.8136 6.2 80.4436 6.48C81.0836 6.75 81.6136 7.14 82.0336 7.65C82.4636 8.15 82.7886 8.755 83.0086 9.465C83.2286 10.175 83.3386 10.96 83.3386 11.82V21.495H80.6536V11.82C80.6536 10.67 80.3886 9.78 79.8586 9.15C79.3386 8.51 78.5436 8.19 77.4736 8.19C76.6836 8.19 75.9436 8.38 75.2536 8.76C74.5736 9.14 73.9436 9.655 73.3636 10.305V21.495H70.6786V6.3H72.2836C72.6636 6.3 72.8986 6.485 72.9886 6.855L73.1986 8.505Z" fill="#F5F9FC"/>
<path d="M95.6421 14.655C94.4121 14.695 93.3621 14.795 92.4921 14.955C91.6321 15.105 90.9271 15.305 90.3771 15.555C89.8371 15.805 89.4421 16.1 89.1921 16.44C88.9521 16.78 88.8321 17.16 88.8321 17.58C88.8321 17.98 88.8971 18.325 89.0271 18.615C89.1571 18.905 89.3321 19.145 89.5521 19.335C89.7821 19.515 90.0471 19.65 90.3471 19.74C90.6571 19.82 90.9871 19.86 91.3371 19.86C91.8071 19.86 92.2371 19.815 92.6271 19.725C93.0171 19.625 93.3821 19.485 93.7221 19.305C94.0721 19.125 94.4021 18.91 94.7121 18.66C95.0321 18.41 95.3421 18.125 95.6421 17.805V14.655ZM87.0171 8.445C87.8571 7.635 88.7621 7.03 89.7321 6.63C90.7021 6.23 91.7771 6.03 92.9571 6.03C93.8071 6.03 94.5621 6.17 95.2221 6.45C95.8821 6.73 96.4371 7.12 96.8871 7.62C97.3371 8.12 97.6771 8.725 97.9071 9.435C98.1371 10.145 98.2521 10.925 98.2521 11.775V21.495H97.0671C96.8071 21.495 96.6071 21.455 96.4671 21.375C96.3271 21.285 96.2171 21.115 96.1371 20.865L95.8371 19.425C95.4371 19.795 95.0471 20.125 94.6671 20.415C94.2871 20.695 93.8871 20.935 93.4671 21.135C93.0471 21.325 92.5971 21.47 92.1171 21.57C91.6471 21.68 91.1221 21.735 90.5421 21.735C89.9521 21.735 89.3971 21.655 88.8771 21.495C88.3571 21.325 87.9021 21.075 87.5121 20.745C87.1321 20.415 86.8271 20 86.5971 19.5C86.3771 18.99 86.2671 18.39 86.2671 17.7C86.2671 17.1 86.4321 16.525 86.7621 15.975C87.0921 15.415 87.6271 14.92 88.3671 14.49C89.1071 14.06 90.0721 13.71 91.2621 13.44C92.4521 13.16 93.9121 13 95.6421 12.96V11.775C95.6421 10.595 95.3871 9.705 94.8771 9.105C94.3671 8.495 93.6221 8.19 92.6421 8.19C91.9821 8.19 91.4271 8.275 90.9771 8.445C90.5371 8.605 90.1521 8.79 89.8221 9C89.5021 9.2 89.2221 9.385 88.9821 9.555C88.7521 9.715 88.5221 9.795 88.2921 9.795C88.1121 9.795 87.9571 9.75 87.8271 9.66C87.6971 9.56 87.5871 9.44 87.4971 9.3L87.0171 8.445Z" fill="#F5F9FC"/>
<path d="M102.319 21.495V6.3H103.924C104.304 6.3 104.539 6.485 104.629 6.855L104.824 8.415C105.384 7.725 106.014 7.16 106.714 6.72C107.414 6.28 108.224 6.06 109.144 6.06C110.164 6.06 110.989 6.345 111.619 6.915C112.259 7.485 112.719 8.255 112.999 9.225C113.219 8.675 113.499 8.2 113.839 7.8C114.189 7.4 114.579 7.07 115.009 6.81C115.439 6.55 115.894 6.36 116.374 6.24C116.864 6.12 117.359 6.06 117.859 6.06C118.659 6.06 119.369 6.19 119.989 6.45C120.619 6.7 121.149 7.07 121.579 7.56C122.019 8.05 122.354 8.655 122.584 9.375C122.814 10.085 122.929 10.9 122.929 11.82V21.495H120.244V11.82C120.244 10.63 119.984 9.73 119.464 9.12C118.944 8.5 118.194 8.19 117.214 8.19C116.774 8.19 116.354 8.27 115.954 8.43C115.564 8.58 115.219 8.805 114.919 9.105C114.619 9.405 114.379 9.785 114.199 10.245C114.029 10.695 113.944 11.22 113.944 11.82V21.495H111.259V11.82C111.259 10.6 111.014 9.69 110.524 9.09C110.034 8.49 109.319 8.19 108.379 8.19C107.719 8.19 107.109 8.37 106.549 8.73C105.989 9.08 105.474 9.56 105.004 10.17V21.495H102.319Z" fill="#F5F9FC"/>
<path d="M137.157 12.24C137.157 11.62 137.067 11.055 136.887 10.545C136.717 10.025 136.462 9.58 136.122 9.21C135.792 8.83 135.387 8.54 134.907 8.34C134.427 8.13 133.882 8.025 133.272 8.025C131.992 8.025 130.977 8.4 130.227 9.15C129.487 9.89 129.027 10.92 128.847 12.24H137.157ZM139.317 19.365C138.987 19.765 138.592 20.115 138.132 20.415C137.672 20.705 137.177 20.945 136.647 21.135C136.127 21.325 135.587 21.465 135.027 21.555C134.467 21.655 133.912 21.705 133.362 21.705C132.312 21.705 131.342 21.53 130.452 21.18C129.572 20.82 128.807 20.3 128.157 19.62C127.517 18.93 127.017 18.08 126.657 17.07C126.297 16.06 126.117 14.9 126.117 13.59C126.117 12.53 126.277 11.54 126.597 10.62C126.927 9.7 127.397 8.905 128.007 8.235C128.617 7.555 129.362 7.025 130.242 6.645C131.122 6.255 132.112 6.06 133.212 6.06C134.122 6.06 134.962 6.215 135.732 6.525C136.512 6.825 137.182 7.265 137.742 7.845C138.312 8.415 138.757 9.125 139.077 9.975C139.397 10.815 139.557 11.775 139.557 12.855C139.557 13.275 139.512 13.555 139.422 13.695C139.332 13.835 139.162 13.905 138.912 13.905H128.757C128.787 14.865 128.917 15.7 129.147 16.41C129.387 17.12 129.717 17.715 130.137 18.195C130.557 18.665 131.057 19.02 131.637 19.26C132.217 19.49 132.867 19.605 133.587 19.605C134.257 19.605 134.832 19.53 135.312 19.38C135.802 19.22 136.222 19.05 136.572 18.87C136.922 18.69 137.212 18.525 137.442 18.375C137.682 18.215 137.887 18.135 138.057 18.135C138.277 18.135 138.447 18.22 138.567 18.39L139.317 19.365Z" fill="#F5F9FC"/>
<path d="M146.047 0V8.58C146.047 9.03 146.037 9.47 146.017 9.9C145.997 10.33 145.972 10.765 145.942 11.205C145.912 11.635 145.872 12.08 145.822 12.54C145.782 12.99 145.732 13.475 145.672 13.995H143.872C143.812 13.475 143.757 12.99 143.707 12.54C143.667 12.08 143.632 11.635 143.602 11.205C143.572 10.765 143.547 10.33 143.527 9.9C143.507 9.47 143.497 9.03 143.497 8.58V0H146.047ZM142.852 19.845C142.852 19.585 142.897 19.34 142.987 19.11C143.087 18.88 143.222 18.68 143.392 18.51C143.562 18.34 143.757 18.205 143.977 18.105C144.207 18.005 144.457 17.955 144.727 17.955C144.987 17.955 145.227 18.005 145.447 18.105C145.677 18.205 145.877 18.34 146.047 18.51C146.217 18.68 146.352 18.88 146.452 19.11C146.552 19.34 146.602 19.585 146.602 19.845C146.602 20.115 146.552 20.365 146.452 20.595C146.352 20.815 146.217 21.01 146.047 21.18C145.877 21.35 145.677 21.48 145.447 21.57C145.227 21.67 144.987 21.72 144.727 21.72C144.457 21.72 144.207 21.67 143.977 21.57C143.757 21.48 143.562 21.35 143.392 21.18C143.222 21.01 143.087 20.815 142.987 20.595C142.897 20.365 142.852 20.115 142.852 19.845Z" fill="#F5F9FC"/>
</svg>
