<svg width="70" height="70" viewBox="0 0 70 70" fill="none" xmlns="http://www.w3.org/2000/svg">
<circle cx="35" cy="35" r="35" fill="#F5F9FC"/>
<path d="M46.4906 27.8553C46.4132 27.3385 45.9745 26.9767 45.4585 26.9767H39.5235V24.5478C39.5235 22.0413 37.4849 20 34.9819 20C32.4789 20 30.4404 22.0413 30.4404 24.5478V26.9767H24.5054C23.9893 26.9767 23.5507 27.3385 23.4732 27.8553L20.0155 48.7855C19.9639 49.0956 20.0413 49.4057 20.2477 49.6382C20.4542 49.8708 20.738 50 21.0477 50H48.9162C48.9162 50 48.9162 50 48.942 50C49.5355 50 50 49.5349 50 48.9406C50 48.8114 49.9742 48.708 49.9484 48.6047L46.4906 27.8553V27.8553ZM32.5563 24.5478C32.5563 23.2041 33.6401 22.1189 34.9819 22.1189C36.3238 22.1189 37.4075 23.2041 37.4075 24.5478V26.9767H32.5563V24.5478V24.5478ZM22.2863 47.907L25.4086 29.0956H30.4404V35.0129C30.4404 35.6072 30.9049 36.0724 31.4984 36.0724C32.0919 36.0724 32.5563 35.6072 32.5563 35.0129V29.0956H37.4075V35.0129C37.4075 35.6072 37.872 36.0724 38.4655 36.0724C39.059 36.0724 39.5235 35.6072 39.5235 35.0129V29.0956H44.5553L47.6776 47.907H22.2863V47.907Z" fill="#314B63"/>
</svg>
